<svg width="18" height="18" viewBox="0 0 18 18" fill="none" xmlns="http://www.w3.org/2000/svg">
<path d="M8.50368 0.308332C8.59688 0.119527 8.78915 8.36592e-09 8.99972 8.36592e-09C9.21029 -3.65109e-05 9.4026 0.119491 9.4958 0.308295L11.6535 4.67954C11.8564 5.09056 12.2485 5.37552 12.7022 5.4414L17.5263 6.14268C17.7347 6.17299 17.9078 6.31892 17.9729 6.51919C18.0379 6.71943 17.9837 6.93928 17.833 7.08627L14.3424 10.4892C14.0142 10.8092 13.8644 11.2702 13.9418 11.7219L14.7655 16.5259C14.801 16.7334 14.7157 16.9432 14.5453 17.0668C14.375 17.1907 14.1492 17.2069 13.9628 17.1089L9.64786 14.8409C9.24214 14.6276 8.75741 14.6276 8.35161 14.8409L4.03705 17.1089C3.85065 17.2069 3.62482 17.1905 3.45449 17.0668C3.28413 16.943 3.19886 16.7332 3.23443 16.5258L4.05841 11.7221C4.13594 11.2702 3.98614 10.8092 3.65783 10.4891L0.167068 7.0863C0.0163167 6.93931 -0.0379874 6.71947 0.0270899 6.51923C0.0921671 6.319 0.265268 6.17307 0.473647 6.14272L5.29769 5.44148C5.75133 5.37552 6.14351 5.0906 6.34642 4.6795L8.50368 0.308332Z" fill="#FFC700"/>
</svg>
